<svg width="37" height="33" viewBox="0 0 37 33" fill="none" xmlns="http://www.w3.org/2000/svg">
<path d="M0.653498 15.8395L9.17905 19.0215L12.479 29.634C12.6902 30.3137 13.5213 30.5649 14.073 30.1139L18.8252 26.2398C19.3234 25.8338 20.0329 25.8136 20.5535 26.1916L29.125 32.4146C29.7151 32.8435 30.5512 32.5202 30.6992 31.807L36.9782 1.60377C37.1398 0.824821 36.3744 0.174935 35.6327 0.46183L0.643525 13.9595C-0.219906 14.2925 -0.212391 15.5149 0.653498 15.8395ZM11.9472 17.3276L28.6093 7.0654C28.9088 6.88149 29.2168 7.28639 28.9597 7.52494L15.2086 20.3072C14.7253 20.7572 14.4135 21.3593 14.3252 22.0129L13.8567 25.4842C13.7947 25.9477 13.1436 25.9937 13.0157 25.5451L11.2142 19.215C11.0079 18.4929 11.3086 17.7218 11.9472 17.3276Z" fill="#DEDEE0"/>
</svg>
